<svg width="64" height="12" viewBox="0 0 64 12" fill="none" xmlns="http://www.w3.org/2000/svg">
<path d="M0.90536 9C0.78536 9 0.72536 8.956 0.72536 8.868C0.72536 8.796 0.77736 8.748 0.88136 8.724L1.15736 8.676C1.42936 8.628 1.56536 8.472 1.56536 8.208V1.152C1.56536 0.984 1.53736 0.872 1.48136 0.816C1.43336 0.76 1.32536 0.716 1.15736 0.684L0.88136 0.636C0.77736 0.612 0.72536 0.563999 0.72536 0.491999C0.72536 0.404 0.78536 0.36 0.90536 0.36H3.32936C3.95336 0.36 4.49336 0.544 4.94936 0.912C5.40536 1.272 5.75736 1.78 6.00536 2.436C6.25336 3.092 6.37736 3.852 6.37736 4.716C6.37736 5.588 6.24536 6.344 5.98136 6.984C5.72536 7.624 5.36136 8.12 4.88936 8.472C4.41736 8.824 3.85736 9 3.20936 9H0.90536ZM3.25736 8.688C3.96936 8.688 4.50936 8.348 4.87736 7.668C5.25336 6.988 5.44136 6.004 5.44136 4.716C5.44136 3.436 5.26136 2.444 4.90136 1.74C4.54936 1.028 4.02536 0.672 3.32936 0.672C2.72136 0.672 2.41736 0.964 2.41736 1.548V7.812C2.41736 8.132 2.48136 8.36 2.60936 8.496C2.74536 8.624 2.96136 8.688 3.25736 8.688ZM8.70864 3.648C9.03664 3.088 9.43264 2.808 9.89664 2.808C10.1606 2.808 10.3566 2.888 10.4846 3.048C10.6126 3.2 10.6766 3.372 10.6766 3.564C10.6766 3.716 10.6366 3.84 10.5566 3.936C10.4846 4.032 10.3686 4.08 10.2086 4.08C10.0806 4.08 9.98464 4.052 9.92064 3.996C9.86464 3.932 9.81664 3.86 9.77664 3.78C9.74464 3.7 9.70464 3.632 9.65664 3.576C9.60864 3.512 9.52864 3.48 9.41664 3.48C9.27264 3.48 9.13664 3.568 9.00864 3.744C8.88064 3.912 8.77264 4.14 8.68464 4.428C8.60464 4.716 8.56464 5.044 8.56464 5.412V8.196C8.56464 8.364 8.58864 8.484 8.63664 8.556C8.69264 8.628 8.80464 8.672 8.97264 8.688L9.29664 8.724C9.38464 8.74 9.42864 8.784 9.42864 8.856C9.42864 8.952 9.36864 9 9.24864 9H7.22064C7.10064 9 7.04064 8.956 7.04064 8.868C7.04064 8.796 7.09264 8.748 7.19664 8.724L7.34064 8.7C7.50864 8.668 7.61664 8.62 7.66464 8.556C7.72064 8.484 7.74864 8.364 7.74864 8.196V4.164C7.74864 4.02 7.72464 3.924 7.67664 3.876C7.63664 3.82 7.56064 3.784 7.44864 3.768L7.19664 3.732C7.09264 3.724 7.04064 3.68 7.04064 3.6C7.04064 3.536 7.10464 3.492 7.23264 3.468C7.48064 3.428 7.66864 3.364 7.79664 3.276C7.93264 3.188 8.07264 3.08 8.21664 2.952C8.28864 2.88 8.34864 2.844 8.39664 2.844C8.46864 2.844 8.50464 2.892 8.50464 2.988V3.636C8.50464 3.692 8.52864 3.728 8.57664 3.744C8.62464 3.752 8.66864 3.72 8.70864 3.648ZM12.985 9.108C12.601 9.108 12.257 8.98 11.953 8.724C11.649 8.468 11.405 8.108 11.221 7.644C11.045 7.172 10.957 6.628 10.957 6.012C10.957 5.38 11.049 4.824 11.233 4.344C11.417 3.864 11.669 3.488 11.989 3.216C12.309 2.944 12.665 2.808 13.057 2.808C13.529 2.808 13.909 3.004 14.197 3.396C14.493 3.78 14.641 4.408 14.641 5.28C14.641 5.544 14.541 5.676 14.341 5.676H12.061C11.901 5.676 11.821 5.768 11.821 5.952C11.821 6.8 11.945 7.436 12.193 7.86C12.441 8.284 12.757 8.496 13.141 8.496C13.445 8.496 13.693 8.388 13.885 8.172C14.077 7.956 14.233 7.592 14.353 7.08C14.377 6.992 14.429 6.948 14.509 6.948C14.605 6.948 14.641 7.028 14.617 7.188C14.489 7.9 14.285 8.4 14.005 8.688C13.725 8.968 13.385 9.108 12.985 9.108ZM12.025 5.376H13.237C13.621 5.376 13.813 5.176 13.813 4.776C13.813 4.256 13.749 3.848 13.621 3.552C13.493 3.256 13.301 3.108 13.045 3.108C12.733 3.108 12.469 3.288 12.253 3.648C12.045 4.008 11.909 4.52 11.845 5.184C11.829 5.312 11.889 5.376 12.025 5.376ZM16.3866 9.108C16.0506 9.108 15.7746 9.004 15.5586 8.796C15.3426 8.58 15.2346 8.296 15.2346 7.944C15.2346 7.6 15.3426 7.276 15.5586 6.972C15.7746 6.66 16.0706 6.38 16.4466 6.132C16.8226 5.884 17.2506 5.684 17.7306 5.532C17.8346 5.5 17.8866 5.432 17.8866 5.328V4.236C17.8866 3.852 17.8266 3.58 17.7066 3.42C17.5866 3.252 17.4226 3.168 17.2146 3.168C17.0146 3.168 16.8306 3.26 16.6626 3.444C16.5026 3.62 16.3866 3.92 16.3146 4.344C16.2746 4.6 16.1866 4.788 16.0506 4.908C15.9226 5.02 15.7906 5.076 15.6546 5.076C15.4306 5.076 15.3186 4.964 15.3186 4.74C15.3186 4.508 15.3826 4.28 15.5106 4.056C15.6466 3.824 15.8226 3.616 16.0386 3.432C16.2546 3.24 16.4906 3.088 16.7466 2.976C17.0026 2.864 17.2586 2.808 17.5146 2.808C18.3066 2.808 18.7026 3.268 18.7026 4.188V7.86C18.7026 8.196 18.7866 8.364 18.9546 8.364C19.0586 8.364 19.1546 8.296 19.2426 8.16C19.3306 8.016 19.3746 7.776 19.3746 7.44C19.3746 7.312 19.4266 7.248 19.5306 7.248C19.6266 7.248 19.6746 7.316 19.6746 7.452C19.6746 8.036 19.5706 8.46 19.3626 8.724C19.1626 8.98 18.9346 9.108 18.6786 9.108C18.4866 9.108 18.3346 9.032 18.2226 8.88C18.1106 8.72 18.0346 8.532 17.9946 8.316C17.9866 8.236 17.9506 8.196 17.8866 8.196C17.8306 8.188 17.7746 8.224 17.7186 8.304C17.5266 8.568 17.3306 8.768 17.1306 8.904C16.9306 9.04 16.6826 9.108 16.3866 9.108ZM16.7106 8.556C16.9186 8.556 17.1106 8.484 17.2866 8.34C17.4626 8.188 17.6066 7.988 17.7186 7.74C17.8306 7.492 17.8866 7.212 17.8866 6.9V6.024C17.8866 5.872 17.8026 5.828 17.6346 5.892C17.1466 6.068 16.7666 6.312 16.4946 6.624C16.2306 6.928 16.0986 7.296 16.0986 7.728C16.0986 8.28 16.3026 8.556 16.7106 8.556ZM20.0995 9C19.9795 9 19.9195 8.956 19.9195 8.868C19.9195 8.796 19.9715 8.748 20.0755 8.724L20.2195 8.7C20.3875 8.668 20.4955 8.62 20.5435 8.556C20.5995 8.484 20.6275 8.364 20.6275 8.196V4.164C20.6275 4.02 20.6035 3.924 20.5555 3.876C20.5155 3.82 20.4395 3.784 20.3275 3.768L20.0755 3.732C19.9715 3.724 19.9195 3.68 19.9195 3.6C19.9195 3.536 19.9835 3.492 20.1115 3.468C20.3595 3.428 20.5475 3.364 20.6755 3.276C20.8115 3.188 20.9515 3.08 21.0955 2.952C21.1675 2.88 21.2275 2.844 21.2755 2.844C21.3475 2.844 21.3835 2.892 21.3835 2.988V3.528C21.3835 3.584 21.4075 3.628 21.4555 3.66C21.5035 3.684 21.5555 3.668 21.6115 3.612C21.9395 3.3 22.2235 3.088 22.4635 2.976C22.7115 2.864 22.9595 2.808 23.2075 2.808C23.4395 2.808 23.6435 2.872 23.8195 3C24.0035 3.12 24.1395 3.304 24.2275 3.552C24.2515 3.616 24.2915 3.656 24.3475 3.672C24.4115 3.68 24.4715 3.656 24.5275 3.6C24.8555 3.296 25.1395 3.088 25.3795 2.976C25.6195 2.864 25.8635 2.808 26.1115 2.808C26.4475 2.808 26.7195 2.936 26.9275 3.192C27.1435 3.44 27.2515 3.808 27.2515 4.296V8.196C27.2515 8.364 27.2755 8.484 27.3235 8.556C27.3795 8.62 27.4915 8.664 27.6595 8.688L27.9235 8.724C28.0115 8.74 28.0555 8.788 28.0555 8.868C28.0555 8.956 28.0075 9 27.9115 9H25.8595C25.7475 9 25.6915 8.956 25.6915 8.868C25.6915 8.788 25.7355 8.74 25.8235 8.724L25.9915 8.7C26.1755 8.676 26.2955 8.628 26.3515 8.556C26.4075 8.484 26.4355 8.364 26.4355 8.196V4.428C26.4355 4.036 26.3635 3.76 26.2195 3.6C26.0835 3.44 25.8955 3.36 25.6555 3.36C25.4155 3.36 25.1955 3.436 24.9955 3.588C24.8035 3.732 24.6475 3.928 24.5275 4.176C24.4075 4.416 24.3475 4.684 24.3475 4.98V8.196C24.3475 8.364 24.3755 8.484 24.4315 8.556C24.4875 8.62 24.6035 8.664 24.7795 8.688L25.0435 8.724C25.1315 8.74 25.1755 8.788 25.1755 8.868C25.1755 8.956 25.1275 9 25.0315 9H22.9915C22.8795 9 22.8235 8.956 22.8235 8.868C22.8235 8.788 22.8675 8.74 22.9555 8.724L23.1235 8.7C23.2915 8.676 23.3995 8.628 23.4475 8.556C23.5035 8.484 23.5315 8.364 23.5315 8.196V4.428C23.5315 4.036 23.4595 3.76 23.3155 3.6C23.1795 3.44 22.9915 3.36 22.7515 3.36C22.5115 3.36 22.2915 3.436 22.0915 3.588C21.8995 3.732 21.7435 3.928 21.6235 4.176C21.5035 4.416 21.4435 4.684 21.4435 4.98V8.196C21.4435 8.364 21.4675 8.484 21.5155 8.556C21.5715 8.628 21.6835 8.672 21.8515 8.688L22.1755 8.724C22.2635 8.74 22.3075 8.784 22.3075 8.856C22.3075 8.952 22.2475 9 22.1275 9H20.0995Z" fill="url(#paint0_linear_800_286)"/>
<path d="M31.1134 11.58C30.8654 11.58 30.6654 11.512 30.5134 11.376C30.3534 11.248 30.2734 11.076 30.2734 10.86C30.2734 10.7 30.3214 10.568 30.4174 10.464C30.5054 10.36 30.6214 10.308 30.7654 10.308C30.9014 10.308 30.9974 10.348 31.0534 10.428C31.1094 10.508 31.1534 10.6 31.1854 10.704C31.2254 10.808 31.2694 10.9 31.3174 10.98C31.3654 11.06 31.4414 11.1 31.5454 11.1C31.6974 11.1 31.8134 11.012 31.8934 10.836C31.9734 10.66 32.0134 10.412 32.0134 10.092V1.152C32.0134 0.984 31.9854 0.872 31.9294 0.816C31.8814 0.76 31.7734 0.716 31.6054 0.684L31.3294 0.636C31.2254 0.612 31.1734 0.563999 31.1734 0.491999C31.1734 0.404 31.2334 0.36 31.3534 0.36H33.5254C33.6454 0.36 33.7054 0.404 33.7054 0.491999C33.7054 0.563999 33.6534 0.612 33.5494 0.636L33.2734 0.684C33.1054 0.716 32.9934 0.76 32.9374 0.816C32.8894 0.872 32.8654 0.984 32.8654 1.152V8.472C32.8654 9.432 32.7094 10.188 32.3974 10.74C32.0854 11.3 31.6574 11.58 31.1134 11.58ZM36.1354 9.108C35.7274 9.108 35.3594 8.972 35.0314 8.7C34.7114 8.42 34.4554 8.04 34.2634 7.56C34.0714 7.08 33.9754 6.544 33.9754 5.952C33.9754 5.36 34.0714 4.828 34.2634 4.356C34.4554 3.884 34.7154 3.508 35.0434 3.228C35.3714 2.948 35.7354 2.808 36.1354 2.808C36.5434 2.808 36.9074 2.948 37.2274 3.228C37.5554 3.508 37.8154 3.884 38.0074 4.356C38.1994 4.828 38.2954 5.36 38.2954 5.952C38.2954 6.544 38.1994 7.08 38.0074 7.56C37.8234 8.04 37.5674 8.42 37.2394 8.7C36.9114 8.972 36.5434 9.108 36.1354 9.108ZM36.1354 8.808C36.9674 8.808 37.3834 7.856 37.3834 5.952C37.3834 4.056 36.9674 3.108 36.1354 3.108C35.3034 3.108 34.8874 4.056 34.8874 5.952C34.8874 7.856 35.3034 8.808 36.1354 8.808ZM40.6498 9.108C40.4498 9.108 40.2578 9.064 40.0738 8.976C39.8898 8.888 39.7378 8.748 39.6178 8.556C39.4978 8.364 39.4378 8.108 39.4378 7.788V3.612C39.4378 3.468 39.4138 3.368 39.3658 3.312C39.3258 3.256 39.2498 3.224 39.1378 3.216L38.9338 3.192C38.7978 3.176 38.7298 3.124 38.7298 3.036C38.7298 2.932 38.8058 2.88 38.9578 2.88H40.0738C40.1938 2.88 40.2538 2.94 40.2538 3.06V7.536C40.2538 7.904 40.3218 8.168 40.4578 8.328C40.6018 8.48 40.7978 8.556 41.0458 8.556C41.2938 8.556 41.5138 8.488 41.7058 8.352C41.8978 8.208 42.0498 8.02 42.1618 7.788C42.2818 7.548 42.3418 7.288 42.3418 7.008V3.612C42.3418 3.468 42.3178 3.368 42.2698 3.312C42.2298 3.256 42.1538 3.224 42.0418 3.216L41.8378 3.192C41.7018 3.176 41.6338 3.124 41.6338 3.036C41.6338 2.932 41.7098 2.88 41.8618 2.88H42.9778C43.0978 2.88 43.1578 2.94 43.1578 3.06V7.716C43.1578 7.86 43.1778 7.96 43.2178 8.016C43.2658 8.064 43.3458 8.096 43.4578 8.112L43.7098 8.148C43.8138 8.156 43.8658 8.196 43.8658 8.268C43.8658 8.34 43.8018 8.388 43.6738 8.412C43.4258 8.444 43.2258 8.508 43.0738 8.604C42.9298 8.7 42.8018 8.816 42.6898 8.952C42.6178 9.024 42.5578 9.06 42.5098 9.06C42.4378 9.06 42.4018 9.012 42.4018 8.916V8.364C42.4018 8.3 42.3778 8.264 42.3298 8.256C42.2898 8.24 42.2458 8.256 42.1978 8.304C41.9018 8.6 41.6378 8.808 41.4058 8.928C41.1818 9.048 40.9298 9.108 40.6498 9.108ZM45.895 3.648C46.223 3.088 46.619 2.808 47.083 2.808C47.347 2.808 47.543 2.888 47.671 3.048C47.799 3.2 47.863 3.372 47.863 3.564C47.863 3.716 47.823 3.84 47.743 3.936C47.671 4.032 47.555 4.08 47.395 4.08C47.267 4.08 47.171 4.052 47.107 3.996C47.051 3.932 47.003 3.86 46.963 3.78C46.931 3.7 46.891 3.632 46.843 3.576C46.795 3.512 46.715 3.48 46.603 3.48C46.459 3.48 46.323 3.568 46.195 3.744C46.067 3.912 45.959 4.14 45.871 4.428C45.791 4.716 45.751 5.044 45.751 5.412V8.196C45.751 8.364 45.775 8.484 45.823 8.556C45.879 8.628 45.991 8.672 46.159 8.688L46.483 8.724C46.571 8.74 46.615 8.784 46.615 8.856C46.615 8.952 46.555 9 46.435 9H44.407C44.287 9 44.227 8.956 44.227 8.868C44.227 8.796 44.279 8.748 44.383 8.724L44.527 8.7C44.695 8.668 44.803 8.62 44.851 8.556C44.907 8.484 44.935 8.364 44.935 8.196V4.164C44.935 4.02 44.911 3.924 44.863 3.876C44.823 3.82 44.747 3.784 44.635 3.768L44.383 3.732C44.279 3.724 44.227 3.68 44.227 3.6C44.227 3.536 44.291 3.492 44.419 3.468C44.667 3.428 44.855 3.364 44.983 3.276C45.119 3.188 45.259 3.08 45.403 2.952C45.475 2.88 45.535 2.844 45.583 2.844C45.655 2.844 45.691 2.892 45.691 2.988V3.636C45.691 3.692 45.715 3.728 45.763 3.744C45.811 3.752 45.855 3.72 45.895 3.648ZM48.2273 9C48.1073 9 48.0473 8.956 48.0473 8.868C48.0473 8.796 48.0993 8.748 48.2033 8.724L48.3473 8.7C48.5153 8.668 48.6233 8.62 48.6713 8.556C48.7273 8.484 48.7553 8.364 48.7553 8.196V4.164C48.7553 4.02 48.7313 3.924 48.6833 3.876C48.6433 3.82 48.5673 3.784 48.4553 3.768L48.2033 3.732C48.0993 3.724 48.0473 3.68 48.0473 3.6C48.0473 3.536 48.1113 3.492 48.2393 3.468C48.4873 3.428 48.6753 3.364 48.8033 3.276C48.9393 3.188 49.0793 3.08 49.2233 2.952C49.2953 2.88 49.3553 2.844 49.4033 2.844C49.4753 2.844 49.5113 2.892 49.5113 2.988V3.528C49.5113 3.6 49.5353 3.648 49.5833 3.672C49.6393 3.688 49.6993 3.664 49.7633 3.6C50.0833 3.296 50.3633 3.088 50.6033 2.976C50.8513 2.864 51.1113 2.808 51.3833 2.808C51.7433 2.808 52.0313 2.936 52.2473 3.192C52.4633 3.44 52.5713 3.808 52.5713 4.296V8.196C52.5713 8.364 52.5953 8.484 52.6433 8.556C52.6993 8.62 52.8113 8.664 52.9793 8.688L53.2433 8.724C53.3313 8.74 53.3753 8.788 53.3753 8.868C53.3753 8.956 53.3273 9 53.2313 9H51.2153C51.1033 9 51.0473 8.956 51.0473 8.868C51.0473 8.788 51.0913 8.74 51.1793 8.724L51.3473 8.7C51.5153 8.676 51.6233 8.628 51.6713 8.556C51.7273 8.484 51.7553 8.364 51.7553 8.196V4.428C51.7553 4.036 51.6833 3.76 51.5393 3.6C51.3953 3.44 51.1913 3.36 50.9273 3.36C50.6713 3.36 50.4393 3.436 50.2313 3.588C50.0313 3.732 49.8713 3.928 49.7513 4.176C49.6313 4.416 49.5713 4.684 49.5713 4.98V8.196C49.5713 8.364 49.5953 8.484 49.6433 8.556C49.6993 8.628 49.8113 8.672 49.9793 8.688L50.3033 8.724C50.3913 8.74 50.4353 8.784 50.4353 8.856C50.4353 8.952 50.3753 9 50.2553 9H48.2273ZM55.808 9.108C55.424 9.108 55.08 8.98 54.776 8.724C54.472 8.468 54.228 8.108 54.044 7.644C53.868 7.172 53.78 6.628 53.78 6.012C53.78 5.38 53.872 4.824 54.056 4.344C54.24 3.864 54.492 3.488 54.812 3.216C55.132 2.944 55.488 2.808 55.88 2.808C56.352 2.808 56.732 3.004 57.02 3.396C57.316 3.78 57.464 4.408 57.464 5.28C57.464 5.544 57.364 5.676 57.164 5.676H54.884C54.724 5.676 54.644 5.768 54.644 5.952C54.644 6.8 54.768 7.436 55.016 7.86C55.264 8.284 55.58 8.496 55.964 8.496C56.268 8.496 56.516 8.388 56.708 8.172C56.9 7.956 57.056 7.592 57.176 7.08C57.2 6.992 57.252 6.948 57.332 6.948C57.428 6.948 57.464 7.028 57.44 7.188C57.312 7.9 57.108 8.4 56.828 8.688C56.548 8.968 56.208 9.108 55.808 9.108ZM54.848 5.376H56.06C56.444 5.376 56.636 5.176 56.636 4.776C56.636 4.256 56.572 3.848 56.444 3.552C56.316 3.256 56.124 3.108 55.868 3.108C55.556 3.108 55.292 3.288 55.076 3.648C54.868 4.008 54.732 4.52 54.668 5.184C54.652 5.312 54.712 5.376 54.848 5.376ZM58.7657 11.46C58.5497 11.46 58.3777 11.384 58.2497 11.232C58.1217 11.088 58.0577 10.92 58.0577 10.728C58.0577 10.576 58.1017 10.448 58.1897 10.344C58.2777 10.24 58.3977 10.188 58.5497 10.188C58.6777 10.188 58.7697 10.216 58.8257 10.272C58.8817 10.328 58.9217 10.392 58.9457 10.464C58.9697 10.536 58.9937 10.6 59.0177 10.656C59.0417 10.712 59.0897 10.74 59.1617 10.74C59.2497 10.74 59.3297 10.676 59.4017 10.548C59.4737 10.428 59.5737 10.168 59.7017 9.768C59.7817 9.528 59.8297 9.32 59.8457 9.144C59.8697 8.968 59.8657 8.78 59.8337 8.58C59.8097 8.38 59.7497 8.136 59.6537 7.848L58.3457 3.684C58.2897 3.492 58.2337 3.368 58.1777 3.312C58.1297 3.256 58.0497 3.216 57.9377 3.192L57.7577 3.156C57.6537 3.132 57.6017 3.08 57.6017 3C57.6017 2.92 57.6577 2.88 57.7697 2.88H59.7497C59.8617 2.88 59.9177 2.92 59.9177 3C59.9177 3.088 59.8657 3.14 59.7617 3.156L59.5697 3.18C59.3777 3.204 59.2537 3.252 59.1977 3.324C59.1497 3.388 59.1537 3.508 59.2097 3.684L60.2657 7.2C60.2897 7.28 60.3257 7.32 60.3737 7.32C60.4297 7.32 60.4697 7.28 60.4937 7.2L61.5137 3.9C61.5777 3.684 61.5937 3.524 61.5617 3.42C61.5377 3.308 61.4257 3.236 61.2257 3.204L60.9737 3.156C60.8697 3.132 60.8177 3.08 60.8177 3C60.8177 2.92 60.8737 2.88 60.9857 2.88H62.5097C62.6217 2.88 62.6777 2.924 62.6777 3.012C62.6777 3.092 62.6297 3.148 62.5337 3.18L62.4257 3.216C62.3057 3.256 62.2057 3.328 62.1257 3.432C62.0457 3.536 61.9617 3.716 61.8737 3.972L60.0857 9.552C59.9097 10.112 59.7497 10.528 59.6057 10.8C59.4697 11.072 59.3377 11.248 59.2097 11.328C59.0817 11.416 58.9337 11.46 58.7657 11.46Z" fill="url(#paint1_linear_800_286)"/>
<defs>
<linearGradient id="paint0_linear_800_286" x1="-0.547998" y1="0.180468" x2="29.5293" y2="8" gradientUnits="userSpaceOnUse">
<stop stop-color="white" stop-opacity="0.9"/>
<stop offset="1" stop-color="white" stop-opacity="0.7"/>
</linearGradient>
<linearGradient id="paint1_linear_800_286" x1="30.9157" y1="0.672911" x2="62.4359" y2="10.2245" gradientUnits="userSpaceOnUse">
<stop stop-color="white" stop-opacity="0.9"/>
<stop offset="1" stop-color="white" stop-opacity="0.7"/>
</linearGradient>
</defs>
</svg>
