<?xml version="1.0" standalone="no"?>
<svg xmlns="http://www.w3.org/2000/svg" width="500" height="500"><defs><clipPath id="clip-path-dot-color"><circle cx="26" cy="186" r="8" transform="rotate(0,26,186)"/><circle cx="26" cy="202" r="8" transform="rotate(0,26,202)"/><circle cx="26" cy="234" r="8" transform="rotate(0,26,234)"/><circle cx="26" cy="266" r="8" transform="rotate(0,26,266)"/><circle cx="26" cy="314" r="8" transform="rotate(0,26,314)"/><circle cx="26" cy="330" r="8" transform="rotate(0,26,330)"/><circle cx="42" cy="218" r="8" transform="rotate(0,42,218)"/><circle cx="42" cy="282" r="8" transform="rotate(0,42,282)"/><circle cx="42" cy="346" r="8" transform="rotate(0,42,346)"/><circle cx="58" cy="154" r="8" transform="rotate(0,58,154)"/><circle cx="58" cy="202" r="8" transform="rotate(0,58,202)"/><circle cx="58" cy="218" r="8" transform="rotate(0,58,218)"/><circle cx="58" cy="234" r="8" transform="rotate(0,58,234)"/><circle cx="58" cy="250" r="8" transform="rotate(0,58,250)"/><circle cx="58" cy="266" r="8" transform="rotate(0,58,266)"/><circle cx="58" cy="298" r="8" transform="rotate(0,58,298)"/><circle cx="58" cy="314" r="8" transform="rotate(0,58,314)"/><circle cx="58" cy="330" r="8" transform="rotate(0,58,330)"/><circle cx="58" cy="346" r="8" transform="rotate(0,58,346)"/><circle cx="74" cy="170" r="8" transform="rotate(0,74,170)"/><circle cx="74" cy="186" r="8" transform="rotate(0,74,186)"/><circle cx="74" cy="218" r="8" transform="rotate(0,74,218)"/><circle cx="74" cy="234" r="8" transform="rotate(0,74,234)"/><circle cx="74" cy="250" r="8" transform="rotate(0,74,250)"/><circle cx="74" cy="266" r="8" transform="rotate(0,74,266)"/><circle cx="74" cy="314" r="8" transform="rotate(0,74,314)"/><circle cx="74" cy="330" r="8" transform="rotate(0,74,330)"/><circle cx="90" cy="154" r="8" transform="rotate(0,90,154)"/><circle cx="90" cy="170" r="8" transform="rotate(0,90,170)"/><circle cx="90" cy="186" r="8" transform="rotate(0,90,186)"/><circle cx="90" cy="202" r="8" transform="rotate(0,90,202)"/><circle cx="90" cy="218" r="8" transform="rotate(0,90,218)"/><circle cx="90" cy="314" r="8" transform="rotate(0,90,314)"/><circle cx="106" cy="154" r="8" transform="rotate(0,106,154)"/><circle cx="106" cy="170" r="8" transform="rotate(0,106,170)"/><circle cx="106" cy="186" r="8" transform="rotate(0,106,186)"/><circle cx="106" cy="202" r="8" transform="rotate(0,106,202)"/><circle cx="106" cy="218" r="8" transform="rotate(0,106,218)"/><circle cx="106" cy="250" r="8" transform="rotate(0,106,250)"/><circle cx="106" cy="282" r="8" transform="rotate(0,106,282)"/><circle cx="106" cy="314" r="8" transform="rotate(0,106,314)"/><circle cx="106" cy="330" r="8" transform="rotate(0,106,330)"/><circle cx="106" cy="346" r="8" transform="rotate(0,106,346)"/><circle cx="122" cy="154" r="8" transform="rotate(0,122,154)"/><circle cx="122" cy="186" r="8" transform="rotate(0,122,186)"/><circle cx="122" cy="218" r="8" transform="rotate(0,122,218)"/><circle cx="122" cy="250" r="8" transform="rotate(0,122,250)"/><circle cx="122" cy="282" r="8" transform="rotate(0,122,282)"/><circle cx="122" cy="314" r="8" transform="rotate(0,122,314)"/><circle cx="122" cy="346" r="8" transform="rotate(0,122,346)"/><circle cx="138" cy="202" r="8" transform="rotate(0,138,202)"/><circle cx="138" cy="218" r="8" transform="rotate(0,138,218)"/><circle cx="138" cy="266" r="8" transform="rotate(0,138,266)"/><circle cx="138" cy="282" r="8" transform="rotate(0,138,282)"/><circle cx="138" cy="298" r="8" transform="rotate(0,138,298)"/><circle cx="138" cy="314" r="8" transform="rotate(0,138,314)"/><circle cx="138" cy="330" r="8" transform="rotate(0,138,330)"/><circle cx="154" cy="42" r="8" transform="rotate(0,154,42)"/><circle cx="154" cy="90" r="8" transform="rotate(0,154,90)"/><circle cx="154" cy="122" r="8" transform="rotate(0,154,122)"/><circle cx="154" cy="154" r="8" transform="rotate(0,154,154)"/><circle cx="154" cy="202" r="8" transform="rotate(0,154,202)"/><circle cx="154" cy="250" r="8" transform="rotate(0,154,250)"/><circle cx="154" cy="266" r="8" transform="rotate(0,154,266)"/><circle cx="154" cy="282" r="8" transform="rotate(0,154,282)"/><circle cx="154" cy="314" r="8" transform="rotate(0,154,314)"/><circle cx="154" cy="330" r="8" transform="rotate(0,154,330)"/><circle cx="154" cy="362" r="8" transform="rotate(0,154,362)"/><circle cx="154" cy="394" r="8" transform="rotate(0,154,394)"/><circle cx="154" cy="410" r="8" transform="rotate(0,154,410)"/><circle cx="154" cy="442" r="8" transform="rotate(0,154,442)"/><circle cx="170" cy="74" r="8" transform="rotate(0,170,74)"/><circle cx="170" cy="90" r="8" transform="rotate(0,170,90)"/><circle cx="170" cy="138" r="8" transform="rotate(0,170,138)"/><circle cx="170" cy="154" r="8" transform="rotate(0,170,154)"/><circle cx="170" cy="170" r="8" transform="rotate(0,170,170)"/><circle cx="170" cy="186" r="8" transform="rotate(0,170,186)"/><circle cx="170" cy="202" r="8" transform="rotate(0,170,202)"/><circle cx="170" cy="218" r="8" transform="rotate(0,170,218)"/><circle cx="170" cy="234" r="8" transform="rotate(0,170,234)"/><circle cx="170" cy="330" r="8" transform="rotate(0,170,330)"/><circle cx="170" cy="346" r="8" transform="rotate(0,170,346)"/><circle cx="170" cy="362" r="8" transform="rotate(0,170,362)"/><circle cx="170" cy="378" r="8" transform="rotate(0,170,378)"/><circle cx="170" cy="394" r="8" transform="rotate(0,170,394)"/><circle cx="170" cy="410" r="8" transform="rotate(0,170,410)"/><circle cx="170" cy="458" r="8" transform="rotate(0,170,458)"/><circle cx="170" cy="474" r="8" transform="rotate(0,170,474)"/><circle cx="186" cy="26" r="8" transform="rotate(0,186,26)"/><circle cx="186" cy="122" r="8" transform="rotate(0,186,122)"/><circle cx="186" cy="154" r="8" transform="rotate(0,186,154)"/><circle cx="186" cy="186" r="8" transform="rotate(0,186,186)"/><circle cx="186" cy="218" r="8" transform="rotate(0,186,218)"/><circle cx="186" cy="250" r="8" transform="rotate(0,186,250)"/><circle cx="186" cy="266" r="8" transform="rotate(0,186,266)"/><circle cx="186" cy="298" r="8" transform="rotate(0,186,298)"/><circle cx="186" cy="346" r="8" transform="rotate(0,186,346)"/><circle cx="186" cy="362" r="8" transform="rotate(0,186,362)"/><circle cx="186" cy="442" r="8" transform="rotate(0,186,442)"/><circle cx="186" cy="474" r="8" transform="rotate(0,186,474)"/><circle cx="202" cy="58" r="8" transform="rotate(0,202,58)"/><circle cx="202" cy="138" r="8" transform="rotate(0,202,138)"/><circle cx="202" cy="154" r="8" transform="rotate(0,202,154)"/><circle cx="202" cy="170" r="8" transform="rotate(0,202,170)"/><circle cx="202" cy="202" r="8" transform="rotate(0,202,202)"/><circle cx="202" cy="234" r="8" transform="rotate(0,202,234)"/><circle cx="202" cy="282" r="8" transform="rotate(0,202,282)"/><circle cx="202" cy="298" r="8" transform="rotate(0,202,298)"/><circle cx="202" cy="314" r="8" transform="rotate(0,202,314)"/><circle cx="202" cy="362" r="8" transform="rotate(0,202,362)"/><circle cx="202" cy="394" r="8" transform="rotate(0,202,394)"/><circle cx="202" cy="426" r="8" transform="rotate(0,202,426)"/><circle cx="202" cy="458" r="8" transform="rotate(0,202,458)"/><circle cx="202" cy="474" r="8" transform="rotate(0,202,474)"/><circle cx="218" cy="26" r="8" transform="rotate(0,218,26)"/><circle cx="218" cy="42" r="8" transform="rotate(0,218,42)"/><circle cx="218" cy="58" r="8" transform="rotate(0,218,58)"/><circle cx="218" cy="90" r="8" transform="rotate(0,218,90)"/><circle cx="218" cy="122" r="8" transform="rotate(0,218,122)"/><circle cx="218" cy="138" r="8" transform="rotate(0,218,138)"/><circle cx="218" cy="234" r="8" transform="rotate(0,218,234)"/><circle cx="218" cy="250" r="8" transform="rotate(0,218,250)"/><circle cx="218" cy="266" r="8" transform="rotate(0,218,266)"/><circle cx="218" cy="282" r="8" transform="rotate(0,218,282)"/><circle cx="218" cy="298" r="8" transform="rotate(0,218,298)"/><circle cx="218" cy="330" r="8" transform="rotate(0,218,330)"/><circle cx="218" cy="394" r="8" transform="rotate(0,218,394)"/><circle cx="218" cy="426" r="8" transform="rotate(0,218,426)"/><circle cx="218" cy="474" r="8" transform="rotate(0,218,474)"/><circle cx="234" cy="74" r="8" transform="rotate(0,234,74)"/><circle cx="234" cy="90" r="8" transform="rotate(0,234,90)"/><circle cx="234" cy="106" r="8" transform="rotate(0,234,106)"/><circle cx="234" cy="154" r="8" transform="rotate(0,234,154)"/><circle cx="234" cy="170" r="8" transform="rotate(0,234,170)"/><circle cx="234" cy="218" r="8" transform="rotate(0,234,218)"/><circle cx="234" cy="266" r="8" transform="rotate(0,234,266)"/><circle cx="234" cy="282" r="8" transform="rotate(0,234,282)"/><circle cx="234" cy="298" r="8" transform="rotate(0,234,298)"/><circle cx="234" cy="314" r="8" transform="rotate(0,234,314)"/><circle cx="234" cy="378" r="8" transform="rotate(0,234,378)"/><circle cx="234" cy="410" r="8" transform="rotate(0,234,410)"/><circle cx="234" cy="442" r="8" transform="rotate(0,234,442)"/><circle cx="234" cy="474" r="8" transform="rotate(0,234,474)"/><circle cx="250" cy="42" r="8" transform="rotate(0,250,42)"/><circle cx="250" cy="122" r="8" transform="rotate(0,250,122)"/><circle cx="250" cy="154" r="8" transform="rotate(0,250,154)"/><circle cx="250" cy="186" r="8" transform="rotate(0,250,186)"/><circle cx="250" cy="202" r="8" transform="rotate(0,250,202)"/><circle cx="250" cy="234" r="8" transform="rotate(0,250,234)"/><circle cx="250" cy="266" r="8" transform="rotate(0,250,266)"/><circle cx="250" cy="314" r="8" transform="rotate(0,250,314)"/><circle cx="250" cy="362" r="8" transform="rotate(0,250,362)"/><circle cx="250" cy="378" r="8" transform="rotate(0,250,378)"/><circle cx="250" cy="410" r="8" transform="rotate(0,250,410)"/><circle cx="250" cy="474" r="8" transform="rotate(0,250,474)"/><circle cx="266" cy="26" r="8" transform="rotate(0,266,26)"/><circle cx="266" cy="42" r="8" transform="rotate(0,266,42)"/><circle cx="266" cy="74" r="8" transform="rotate(0,266,74)"/><circle cx="266" cy="106" r="8" transform="rotate(0,266,106)"/><circle cx="266" cy="138" r="8" transform="rotate(0,266,138)"/><circle cx="266" cy="202" r="8" transform="rotate(0,266,202)"/><circle cx="266" cy="218" r="8" transform="rotate(0,266,218)"/><circle cx="266" cy="250" r="8" transform="rotate(0,266,250)"/><circle cx="266" cy="266" r="8" transform="rotate(0,266,266)"/><circle cx="266" cy="346" r="8" transform="rotate(0,266,346)"/><circle cx="266" cy="362" r="8" transform="rotate(0,266,362)"/><circle cx="266" cy="378" r="8" transform="rotate(0,266,378)"/><circle cx="266" cy="394" r="8" transform="rotate(0,266,394)"/><circle cx="266" cy="426" r="8" transform="rotate(0,266,426)"/><circle cx="266" cy="458" r="8" transform="rotate(0,266,458)"/><circle cx="282" cy="26" r="8" transform="rotate(0,282,26)"/><circle cx="282" cy="42" r="8" transform="rotate(0,282,42)"/><circle cx="282" cy="58" r="8" transform="rotate(0,282,58)"/><circle cx="282" cy="74" r="8" transform="rotate(0,282,74)"/><circle cx="282" cy="106" r="8" transform="rotate(0,282,106)"/><circle cx="282" cy="122" r="8" transform="rotate(0,282,122)"/><circle cx="282" cy="186" r="8" transform="rotate(0,282,186)"/><circle cx="282" cy="202" r="8" transform="rotate(0,282,202)"/><circle cx="282" cy="250" r="8" transform="rotate(0,282,250)"/><circle cx="282" cy="282" r="8" transform="rotate(0,282,282)"/><circle cx="282" cy="330" r="8" transform="rotate(0,282,330)"/><circle cx="282" cy="346" r="8" transform="rotate(0,282,346)"/><circle cx="282" cy="362" r="8" transform="rotate(0,282,362)"/><circle cx="298" cy="26" r="8" transform="rotate(0,298,26)"/><circle cx="298" cy="42" r="8" transform="rotate(0,298,42)"/><circle cx="298" cy="58" r="8" transform="rotate(0,298,58)"/><circle cx="298" cy="106" r="8" transform="rotate(0,298,106)"/><circle cx="298" cy="170" r="8" transform="rotate(0,298,170)"/><circle cx="298" cy="186" r="8" transform="rotate(0,298,186)"/><circle cx="298" cy="202" r="8" transform="rotate(0,298,202)"/><circle cx="298" cy="250" r="8" transform="rotate(0,298,250)"/><circle cx="298" cy="298" r="8" transform="rotate(0,298,298)"/><circle cx="298" cy="314" r="8" transform="rotate(0,298,314)"/><circle cx="298" cy="330" r="8" transform="rotate(0,298,330)"/><circle cx="298" cy="362" r="8" transform="rotate(0,298,362)"/><circle cx="298" cy="378" r="8" transform="rotate(0,298,378)"/><circle cx="298" cy="394" r="8" transform="rotate(0,298,394)"/><circle cx="298" cy="410" r="8" transform="rotate(0,298,410)"/><circle cx="298" cy="442" r="8" transform="rotate(0,298,442)"/><circle cx="298" cy="474" r="8" transform="rotate(0,298,474)"/><circle cx="314" cy="58" r="8" transform="rotate(0,314,58)"/><circle cx="314" cy="74" r="8" transform="rotate(0,314,74)"/><circle cx="314" cy="106" r="8" transform="rotate(0,314,106)"/><circle cx="314" cy="122" r="8" transform="rotate(0,314,122)"/><circle cx="314" cy="138" r="8" transform="rotate(0,314,138)"/><circle cx="314" cy="154" r="8" transform="rotate(0,314,154)"/><circle cx="314" cy="202" r="8" transform="rotate(0,314,202)"/><circle cx="314" cy="234" r="8" transform="rotate(0,314,234)"/><circle cx="314" cy="250" r="8" transform="rotate(0,314,250)"/><circle cx="314" cy="266" r="8" transform="rotate(0,314,266)"/><circle cx="314" cy="298" r="8" transform="rotate(0,314,298)"/><circle cx="314" cy="314" r="8" transform="rotate(0,314,314)"/><circle cx="314" cy="330" r="8" transform="rotate(0,314,330)"/><circle cx="314" cy="394" r="8" transform="rotate(0,314,394)"/><circle cx="314" cy="410" r="8" transform="rotate(0,314,410)"/><circle cx="314" cy="426" r="8" transform="rotate(0,314,426)"/><circle cx="314" cy="474" r="8" transform="rotate(0,314,474)"/><circle cx="330" cy="58" r="8" transform="rotate(0,330,58)"/><circle cx="330" cy="74" r="8" transform="rotate(0,330,74)"/><circle cx="330" cy="106" r="8" transform="rotate(0,330,106)"/><circle cx="330" cy="138" r="8" transform="rotate(0,330,138)"/><circle cx="330" cy="202" r="8" transform="rotate(0,330,202)"/><circle cx="330" cy="234" r="8" transform="rotate(0,330,234)"/><circle cx="330" cy="250" r="8" transform="rotate(0,330,250)"/><circle cx="330" cy="266" r="8" transform="rotate(0,330,266)"/><circle cx="330" cy="282" r="8" transform="rotate(0,330,282)"/><circle cx="330" cy="298" r="8" transform="rotate(0,330,298)"/><circle cx="330" cy="314" r="8" transform="rotate(0,330,314)"/><circle cx="330" cy="330" r="8" transform="rotate(0,330,330)"/><circle cx="330" cy="346" r="8" transform="rotate(0,330,346)"/><circle cx="330" cy="410" r="8" transform="rotate(0,330,410)"/><circle cx="330" cy="426" r="8" transform="rotate(0,330,426)"/><circle cx="330" cy="458" r="8" transform="rotate(0,330,458)"/><circle cx="330" cy="474" r="8" transform="rotate(0,330,474)"/><circle cx="346" cy="26" r="8" transform="rotate(0,346,26)"/><circle cx="346" cy="42" r="8" transform="rotate(0,346,42)"/><circle cx="346" cy="122" r="8" transform="rotate(0,346,122)"/><circle cx="346" cy="138" r="8" transform="rotate(0,346,138)"/><circle cx="346" cy="154" r="8" transform="rotate(0,346,154)"/><circle cx="346" cy="186" r="8" transform="rotate(0,346,186)"/><circle cx="346" cy="282" r="8" transform="rotate(0,346,282)"/><circle cx="346" cy="298" r="8" transform="rotate(0,346,298)"/><circle cx="346" cy="346" r="8" transform="rotate(0,346,346)"/><circle cx="346" cy="362" r="8" transform="rotate(0,346,362)"/><circle cx="346" cy="378" r="8" transform="rotate(0,346,378)"/><circle cx="346" cy="394" r="8" transform="rotate(0,346,394)"/><circle cx="346" cy="410" r="8" transform="rotate(0,346,410)"/><circle cx="346" cy="474" r="8" transform="rotate(0,346,474)"/><circle cx="362" cy="154" r="8" transform="rotate(0,362,154)"/><circle cx="362" cy="234" r="8" transform="rotate(0,362,234)"/><circle cx="362" cy="266" r="8" transform="rotate(0,362,266)"/><circle cx="362" cy="282" r="8" transform="rotate(0,362,282)"/><circle cx="362" cy="314" r="8" transform="rotate(0,362,314)"/><circle cx="362" cy="330" r="8" transform="rotate(0,362,330)"/><circle cx="362" cy="346" r="8" transform="rotate(0,362,346)"/><circle cx="362" cy="410" r="8" transform="rotate(0,362,410)"/><circle cx="362" cy="442" r="8" transform="rotate(0,362,442)"/><circle cx="362" cy="458" r="8" transform="rotate(0,362,458)"/><circle cx="362" cy="474" r="8" transform="rotate(0,362,474)"/><circle cx="378" cy="202" r="8" transform="rotate(0,378,202)"/><circle cx="378" cy="234" r="8" transform="rotate(0,378,234)"/><circle cx="378" cy="266" r="8" transform="rotate(0,378,266)"/><circle cx="378" cy="298" r="8" transform="rotate(0,378,298)"/><circle cx="378" cy="330" r="8" transform="rotate(0,378,330)"/><circle cx="378" cy="346" r="8" transform="rotate(0,378,346)"/><circle cx="378" cy="378" r="8" transform="rotate(0,378,378)"/><circle cx="378" cy="410" r="8" transform="rotate(0,378,410)"/><circle cx="378" cy="474" r="8" transform="rotate(0,378,474)"/><circle cx="394" cy="186" r="8" transform="rotate(0,394,186)"/><circle cx="394" cy="202" r="8" transform="rotate(0,394,202)"/><circle cx="394" cy="218" r="8" transform="rotate(0,394,218)"/><circle cx="394" cy="234" r="8" transform="rotate(0,394,234)"/><circle cx="394" cy="298" r="8" transform="rotate(0,394,298)"/><circle cx="394" cy="314" r="8" transform="rotate(0,394,314)"/><circle cx="394" cy="330" r="8" transform="rotate(0,394,330)"/><circle cx="394" cy="346" r="8" transform="rotate(0,394,346)"/><circle cx="394" cy="410" r="8" transform="rotate(0,394,410)"/><circle cx="394" cy="426" r="8" transform="rotate(0,394,426)"/><circle cx="394" cy="474" r="8" transform="rotate(0,394,474)"/><circle cx="410" cy="154" r="8" transform="rotate(0,410,154)"/><circle cx="410" cy="170" r="8" transform="rotate(0,410,170)"/><circle cx="410" cy="218" r="8" transform="rotate(0,410,218)"/><circle cx="410" cy="234" r="8" transform="rotate(0,410,234)"/><circle cx="410" cy="250" r="8" transform="rotate(0,410,250)"/><circle cx="410" cy="266" r="8" transform="rotate(0,410,266)"/><circle cx="410" cy="314" r="8" transform="rotate(0,410,314)"/><circle cx="410" cy="330" r="8" transform="rotate(0,410,330)"/><circle cx="410" cy="346" r="8" transform="rotate(0,410,346)"/><circle cx="410" cy="362" r="8" transform="rotate(0,410,362)"/><circle cx="410" cy="378" r="8" transform="rotate(0,410,378)"/><circle cx="410" cy="394" r="8" transform="rotate(0,410,394)"/><circle cx="410" cy="410" r="8" transform="rotate(0,410,410)"/><circle cx="410" cy="458" r="8" transform="rotate(0,410,458)"/><circle cx="426" cy="202" r="8" transform="rotate(0,426,202)"/><circle cx="426" cy="250" r="8" transform="rotate(0,426,250)"/><circle cx="426" cy="282" r="8" transform="rotate(0,426,282)"/><circle cx="426" cy="298" r="8" transform="rotate(0,426,298)"/><circle cx="426" cy="394" r="8" transform="rotate(0,426,394)"/><circle cx="426" cy="426" r="8" transform="rotate(0,426,426)"/><circle cx="426" cy="458" r="8" transform="rotate(0,426,458)"/><circle cx="442" cy="186" r="8" transform="rotate(0,442,186)"/><circle cx="442" cy="282" r="8" transform="rotate(0,442,282)"/><circle cx="442" cy="330" r="8" transform="rotate(0,442,330)"/><circle cx="442" cy="346" r="8" transform="rotate(0,442,346)"/><circle cx="442" cy="362" r="8" transform="rotate(0,442,362)"/><circle cx="442" cy="426" r="8" transform="rotate(0,442,426)"/><circle cx="442" cy="458" r="8" transform="rotate(0,442,458)"/><circle cx="442" cy="474" r="8" transform="rotate(0,442,474)"/><circle cx="458" cy="154" r="8" transform="rotate(0,458,154)"/><circle cx="458" cy="170" r="8" transform="rotate(0,458,170)"/><circle cx="458" cy="186" r="8" transform="rotate(0,458,186)"/><circle cx="458" cy="250" r="8" transform="rotate(0,458,250)"/><circle cx="458" cy="298" r="8" transform="rotate(0,458,298)"/><circle cx="458" cy="362" r="8" transform="rotate(0,458,362)"/><circle cx="458" cy="378" r="8" transform="rotate(0,458,378)"/><circle cx="458" cy="394" r="8" transform="rotate(0,458,394)"/><circle cx="458" cy="458" r="8" transform="rotate(0,458,458)"/><circle cx="458" cy="474" r="8" transform="rotate(0,458,474)"/><circle cx="474" cy="170" r="8" transform="rotate(0,474,170)"/><circle cx="474" cy="218" r="8" transform="rotate(0,474,218)"/><circle cx="474" cy="234" r="8" transform="rotate(0,474,234)"/><circle cx="474" cy="266" r="8" transform="rotate(0,474,266)"/><circle cx="474" cy="298" r="8" transform="rotate(0,474,298)"/><circle cx="474" cy="330" r="8" transform="rotate(0,474,330)"/><circle cx="474" cy="346" r="8" transform="rotate(0,474,346)"/><circle cx="474" cy="410" r="8" transform="rotate(0,474,410)"/><circle cx="474" cy="426" r="8" transform="rotate(0,474,426)"/><circle cx="474" cy="458" r="8" transform="rotate(0,474,458)"/><path clip-rule="evenodd" d="M 74 18a 56 56 0 1 0 0.1 0zm 0 16a 40 40 0 1 1 -0.1 0Z" transform="rotate(0,74,74)"/><circle cx="74" cy="74" r="24" transform="rotate(0,74,74)"/><path clip-rule="evenodd" d="M 426 18a 56 56 0 1 0 0.1 0zm 0 16a 40 40 0 1 1 -0.1 0Z" transform="rotate(90,426,74)"/><circle cx="426" cy="74" r="24" transform="rotate(90,426,74)"/><path clip-rule="evenodd" d="M 74 370a 56 56 0 1 0 0.1 0zm 0 16a 40 40 0 1 1 -0.1 0Z" transform="rotate(-90,74,426)"/><circle cx="74" cy="426" r="24" transform="rotate(-90,74,426)"/></clipPath></defs><rect x="0" y="0" height="500" width="500" clip-path="url('#clip-path-background-color')" fill="#fff"/><rect x="0" y="0" height="500" width="500" clip-path="url('#clip-path-dot-color')" fill="#000000"/></svg>